<svg id="Layer_1" enable-background="new 0 0 512 512" viewBox="0 0 512 512" xmlns="http://www.w3.org/2000/svg" xmlns:xlink="http://www.w3.org/1999/xlink"><linearGradient id="SVGID_1_" gradientTransform="matrix(1 0 0 -1 0 514)" gradientUnits="userSpaceOnUse" x1="55.722" x2="456.29" y1="458.29" y2="57.722"><stop offset="0" stop-opacity=".05"/><stop offset="1" stop-opacity=".3"/></linearGradient><g id="Layer_2_00000100345635830761359860000006636806270630485168_"><g id="Flag_rectangle_copy_3"><g id="Chile"><path d="m40 88h432c22.1 0 40 17.9 40 40v256c0 22.1-17.9 40-40 40h-432c-22.1 0-40-17.9-40-40v-256c0-22.1 17.9-40 40-40z" fill="#f2f2f2"/><path d="m512 256v128c0 22.1-17.9 40-40 40h-432c-22.1 0-40-17.9-40-40v-128z" fill="#d72b1f"/><path d="m156.6 88v168h-156.6v-128c0-22.1 17.9-40 40-40z" fill="#0039a6"/><path d="m78.3 129.7 10.5 32.3h34l-27.5 20 10.5 32.3-27.5-20-27.5 20 10.5-32.3-27.5-20h34z" fill="#f2f2f2"/><path d="m502.9 102.6c-7.6-9.3-19-14.6-30.9-14.6h-432c-22.1 0-40 17.9-40 40v256c0 9.4 3.3 18.4 9.3 25.6.8 1 1.7 1.9 2.6 2.9 7.5 7.4 17.6 11.5 28.1 11.5h432c22.1 0 40-17.9 40-40v-256c0-9.3-3.2-18.3-9.1-25.4zm-462.9 297.4c-2.5 0-5-.6-7.2-1.7-1.5-.7-2.8-1.7-3.9-2.9-3.1-3-4.8-7.1-4.8-11.3v-256.2c0-8.8 7.1-15.9 15.9-15.9h432.2c7.2.1 13.5 4.9 15.4 11.9-11 187-134 253.7-200.2 276.1z" fill="url(#SVGID_1_)"/></g></g></g></svg>