<?xml version="1.0" encoding="utf-8"?>
<!-- Generator: Adobe Illustrator 28.3.0, SVG Export Plug-In . SVG Version: 6.00 Build 0)  -->
<svg version="1.1" id="Layer_1" xmlns="http://www.w3.org/2000/svg" xmlns:xlink="http://www.w3.org/1999/xlink" x="0px" y="0px"
	 viewBox="0 0 512 512" style="enable-background:new 0 0 512 512;" xml:space="preserve">
<style type="text/css">
	.st0{fill-rule:evenodd;clip-rule:evenodd;fill:#0CBABA;}
</style>
<path class="st0" d="M255.2,7.8c46.2,0.5,87.8,11.9,125.1,34c36.8,21.7,67.4,52.5,88.9,89.4c22,37.5,33.3,79.4,33.8,125.8
	c-1.3,63.5-21.3,117.8-60.1,162.8c-38.8,45-88.4,72.8-139.8,83.5V325.2h48.6l11-70H289v-45.8c-0.4-9.5,2.6-18.8,8.5-26.3
	c5.9-7.5,16.2-11.4,31.1-11.8H373v-61.3c-0.6-0.2-6.7-1-18.1-2.4c-13-1.5-26.1-2.3-39.2-2.4c-29.6,0.1-53,8.5-70.3,25.1
	c-17.2,16.6-26,40.5-26.4,71.9v53.2h-56v70h56v178.1c-63.1-10.7-112.8-38.5-151.5-83.5S8.7,320.6,7.4,257.1
	c0.5-46.4,11.8-88.4,33.8-125.8c21.5-36.9,52.1-67.7,88.9-89.4C167.3,19.6,209,8.3,255.2,7.8L255.2,7.8z"/>
</svg>
