<?xml version="1.0" encoding="utf-8"?>
<!-- Generator: Adobe Illustrator 28.3.0, SVG Export Plug-In . SVG Version: 6.00 Build 0)  -->
<svg version="1.1" id="Capa_1" xmlns="http://www.w3.org/2000/svg" xmlns:xlink="http://www.w3.org/1999/xlink" x="0px" y="0px"
	 viewBox="0 0 611 193.9" style="enable-background:new 0 0 611 193.9;" xml:space="preserve">
<style type="text/css">
	.st0{fill:#0CBABA;}
	.st1{fill:#E4EAEC;}
</style>
<path class="st0" d="M92.3,132c-0.2-4.1-0.4-8.2-0.4-12.3c-0.1-4.2-0.1-7.5-0.1-10.2V0.1H72.7l-0.4,1.6c0.5,2.3,0.9,5.5,1.1,9.6
	c0.2,4.1,0.4,8.2,0.4,12.3c0.1,4.2,0.1,7.5,0.1,10.2v8.5c-1.6-0.5-3.4-0.9-5.4-1.3c-3.5-0.6-7.6-1-12.2-1c-11.2,0-21,2.2-29.5,6.6
	C18.3,50.9,11.6,57.2,7,65.4c-4.7,8.2-7,18.1-7,29.7s2.1,21.5,6.4,29.9c4.3,8.3,10.4,14.7,18.5,19.2c8.2,4.5,18.1,6.7,29.8,6.7
	c7.4,0,14.3-0.8,20.6-2.3c6.3-1.6,12.2-3.4,17.6-5.5l0.4-1.6C92.9,139.1,92.6,135.9,92.3,132z M56.3,135.2c-8.2,0-15.1-1.4-20.7-4.3
	c-5.6-2.8-9.8-7.3-12.8-13.2c-2.9-5.9-4.4-13.5-4.4-22.8c0-12.8,3.4-22.5,10-29.3c6.7-6.7,16.4-10.2,29-10.2c4.8,0,8.8,0.4,12,1.2
	c1.7,0.4,3.2,0.9,4.4,1.3v60.7c0,3.3,0.1,6.4,0.4,9.5c0.1,1.4,0.3,2.8,0.4,4c-1.9,0.6-3.9,1.2-6,1.7C65,134.9,60.8,135.2,56.3,135.2
	z"/>
<path class="st0" d="M193.1,132.8c-0.2-4-0.4-8.2-0.4-12.3c-0.1-4.2-0.1-7.5-0.1-10.2v-68h-19.2l-0.4,1.6c0.5,2.3,0.9,5.5,1.1,9.6
	c0.2,4.1,0.4,8.2,0.4,12.3c0.1,4.2,0.1,7.5,0.1,10.2v45.3c0,2.8,0.1,5.7,0.2,8.4c0.1,1.2,0.2,2.2,0.3,3.2c-2.3,0.5-4.7,1-7.4,1.4
	c-4.3,0.7-8.6,1.1-12.8,1.1c-6.9,0-12.8-0.9-17.6-2.7c-4.9-1.8-8.6-5-11.2-9.6c-2.6-4.6-3.8-11.3-3.8-19.9V42.3h-19.2l-0.4,1.6
	c0.5,2.3,0.9,5.5,1.1,9.6c0.2,4.1,0.4,8.2,0.4,12.3c0.1,4.2,0.1,7.5,0.1,10.2v28.8c0,9.1,1.2,16.7,3.7,22.6
	c2.5,6,5.9,10.7,10.3,14.2c4.3,3.5,9.5,5.8,15.4,7.3c5.9,1.3,12.2,2,19.1,2c3.4,0,7.6-0.4,12.8-1c5.1-0.6,10.3-1.5,15.4-2.6
	c5.1-1.1,9.4-2.2,12.8-3.5l0.4-1.6C193.8,139.9,193.3,136.7,193.1,132.8z"/>
<path class="st0" d="M293.5,71.7c-2.5-6.7-6-12.5-10.7-17.3c-4.7-4.8-10.3-8.3-16.9-10.8c-6.6-2.5-13.9-3.7-22.2-3.7
	c-6.7,0-13.5,0.7-20.4,2.1c-7,1.4-13.3,3.3-19.1,5.7l-0.4,1.6c0.5,2.3,0.9,5.5,1.1,9.6c0.2,4.1,0.4,8.1,0.4,12.2
	c0.1,4.1,0.1,7.3,0.1,9.6v113.3h18v-45.5c1.7,0.4,3.7,0.8,5.9,1.2c4,0.9,8,1.2,12,1.2c8.6,0,16.3-1.2,23.2-3.8
	c6.9-2.6,12.8-6.2,17.6-11c4.8-4.8,8.5-10.6,11.2-17.6c2.6-6.9,3.9-14.7,3.9-23.4C297.2,86.3,296,78.6,293.5,71.7z M269.5,124.9
	c-6.2,6.9-15.6,10.4-28.1,10.4c-5.6,0-10-0.4-13.2-1.2c-1.9-0.4-3.5-1-4.8-1.4V71.3c0-3-0.1-5.9-0.3-8.8c-0.1-1.2-0.2-2.3-0.3-3.4
	c1.9-0.7,4.1-1.4,6.6-2c4.1-1,8.3-1.5,12.8-1.5c11.7,0,20.8,3.3,27.1,9.8c6.4,6.6,9.6,16.4,9.6,29.6
	C278.8,108,275.7,118,269.5,124.9z"/>
<path class="st0" d="M309.6,148.5V33.7c0-2.6,0-6-0.1-10.2c-0.1-4.2-0.2-8.2-0.4-12.3c-0.2-4-0.5-7.2-1.1-9.6l0.4-1.6h19.2v148.4
	L309.6,148.5L309.6,148.5z"/>
<path class="st1" d="M510.1,132.8c-0.2-4-0.4-8.2-0.4-12.3c-0.1-4.2-0.1-7.5-0.1-10.2v-68h-19.2l-0.4,1.6c0.5,2.3,0.9,5.5,1.1,9.6
	c0.2,4.1,0.4,8.2,0.4,12.3c0.1,4.2,0.1,7.5,0.1,10.2v45.3c0,2.8,0.1,5.7,0.2,8.4c0.1,1.2,0.2,2.2,0.3,3.2c-2.3,0.5-4.7,1-7.4,1.4
	c-4.3,0.7-8.6,1.1-12.8,1.1c-6.9,0-12.8-0.9-17.6-2.7c-4.9-1.8-8.6-5-11.2-9.6c-2.6-4.6-3.8-11.3-3.8-19.9V42.3h-19.2l-0.4,1.6
	c0.5,2.3,0.9,5.5,1.1,9.6c0.2,4.1,0.4,8.2,0.4,12.3c0.1,4.2,0.1,7.5,0.1,10.2v28.8c0,9.1,1.2,16.7,3.7,22.6
	c2.5,6,5.9,10.7,10.3,14.2c4.3,3.5,9.5,5.8,15.4,7.3c5.9,1.3,12.2,2,19.1,2c3.4,0,7.6-0.4,12.8-1c5.1-0.6,10.3-1.5,15.4-2.6
	c5.1-1.1,9.4-2.2,12.8-3.5l0.4-1.6C510.7,139.9,510.3,136.7,510.1,132.8z"/>
<path class="st1" d="M611,42.3h-18.7L564,82.9l-29.4-40.6H515v1.6l38.6,53.3L516.5,147c-0.3,0.5,0.1,1.1,0.6,1.2
	c1.6,0.3,4.1,0.4,4.9,0.4h13.3l27.2-38.9l28.2,38.9h12.7c0.4,0,0.8,0,1.2-0.1l2.2-0.4c2.4-0.5,3.3-2.3,2.1-4l-1.9-2.7l-34.2-46
	L611,43.8V42.3z"/>
<path class="st0" d="M418.4,146.7c-0.4-2.1-0.4,0.3-2.4-5.9c-3.1-9.5-6-21.6-5.4-30.6c0.2-2.7-1.6-5-4.3-4.6
	c-3.2,0.4-7.2,1.3-9.8,3.5c-0.5,0.4-0.8,1.1-0.8,1.7l2.8,20.3H355c0.1-4.4,1.4-8.3,4.1-11.4c2.7-3.3,7.3-5.8,13.7-7.4l6.2-1.6
	c9.2-2.7,16.5-6.8,21.7-12.5c5.3-5.7,8-13.4,8-23.1c0-6.6-1.4-12.4-4.3-17.7c-2.8-5.3-7.4-9.5-13.5-12.6c-6.1-3.1-14-4.7-23.8-4.7
	c-5.6,0-10.7,0.5-15.6,1.5c-4.9,1-8.8,2.2-11.7,3.5v17.8h1.3c1.8-0.9,3.9-1.8,6.5-2.6c2.5-0.8,5.2-1.5,8.2-2c2.9-0.5,6-0.7,9.2-0.7
	c7.9,0,13.8,1.6,17.6,4.8c3.9,3.2,5.8,7.5,5.8,13c0,5.3-1.3,9.6-3.9,12.7c-2.6,3.1-6.7,5.4-12.2,6.9l-6.7,1.8
	c-7.4,2-13.4,4.8-17.8,8.4c-4.4,3.6-7.6,7.8-9.6,12.7c-2,4.9-2.9,10.1-2.9,15.9c0,2.2,0.2,4.8,0.5,7.8c0.4,3,1,5.4,1.9,7.2h72.7
	C415,148.4,418.6,147.7,418.4,146.7z"/>
</svg>
