<?xml version="1.0" encoding="UTF-8"?>
<svg xmlns="http://www.w3.org/2000/svg" xmlns:xlink="http://www.w3.org/1999/xlink" viewBox="0 0 2817.52 3161.37">
  <defs>
    <style>
      .cls-1 {
        fill: url(#linear-gradient-38);
      }

      .cls-1, .cls-2, .cls-3, .cls-4, .cls-5, .cls-6, .cls-7, .cls-8, .cls-9, .cls-10, .cls-11, .cls-12, .cls-13, .cls-14, .cls-15, .cls-16, .cls-17, .cls-18, .cls-19, .cls-20, .cls-21, .cls-22, .cls-23, .cls-24, .cls-25, .cls-26, .cls-27, .cls-28, .cls-29, .cls-30, .cls-31, .cls-32, .cls-33, .cls-34, .cls-35, .cls-36, .cls-37, .cls-38, .cls-39, .cls-40, .cls-41, .cls-42, .cls-43, .cls-44, .cls-45, .cls-46, .cls-47, .cls-48 {
        stroke-width: 0px;
      }

      .cls-2 {
        fill: url(#linear-gradient-12);
      }

      .cls-3 {
        fill: url(#linear-gradient-17);
      }

      .cls-4 {
        fill: url(#linear-gradient-19);
      }

      .cls-5 {
        fill: url(#linear-gradient-33);
      }

      .cls-6 {
        fill: url(#linear-gradient);
      }

      .cls-7 {
        fill: url(#linear-gradient-29);
      }

      .cls-7, .cls-29, .cls-49 {
        opacity: .3;
      }

      .cls-7, .cls-29, .cls-49, .cls-48 {
        mix-blend-mode: multiply;
      }

      .cls-8 {
        fill: #d8dee8;
      }

      .cls-9 {
        fill: #fcfdfe;
      }

      .cls-10 {
        opacity: .48;
      }

      .cls-10, .cls-50 {
        mix-blend-mode: soft-light;
      }

      .cls-10, .cls-43 {
        fill: #fff;
      }

      .cls-11 {
        fill: url(#linear-gradient-21);
      }

      .cls-12 {
        fill: url(#linear-gradient-6);
      }

      .cls-13 {
        fill: #f4f7fa;
      }

      .cls-51 {
        clip-path: url(#clippath-2);
      }

      .cls-52 {
        isolation: isolate;
      }

      .cls-14 {
        fill: url(#linear-gradient-15);
      }

      .cls-53 {
        clip-path: url(#clippath-6);
      }

      .cls-15 {
        fill: #97a6b7;
      }

      .cls-16 {
        fill: url(#linear-gradient-11);
      }

      .cls-17 {
        fill: url(#linear-gradient-5);
      }

      .cls-18 {
        fill: none;
      }

      .cls-19 {
        fill: url(#linear-gradient-31);
      }

      .cls-20 {
        fill: url(#linear-gradient-34);
      }

      .cls-54 {
        clip-path: url(#clippath-7);
      }

      .cls-21 {
        fill: #bfc8d6;
      }

      .cls-55 {
        clip-path: url(#clippath-1);
      }

      .cls-56 {
        clip-path: url(#clippath-4);
      }

      .cls-50 {
        opacity: .5;
      }

      .cls-22 {
        fill: url(#linear-gradient-13);
      }

      .cls-23 {
        fill: url(#linear-gradient-23);
      }

      .cls-24 {
        fill: url(#linear-gradient-25);
      }

      .cls-25 {
        fill: #beb8f2;
      }

      .cls-26 {
        fill: url(#linear-gradient-16);
      }

      .cls-27 {
        fill: url(#linear-gradient-22);
      }

      .cls-28 {
        fill: url(#linear-gradient-35);
      }

      .cls-29 {
        fill: url(#linear-gradient-26);
      }

      .cls-30 {
        fill: url(#linear-gradient-32);
      }

      .cls-31 {
        fill: url(#linear-gradient-20);
      }

      .cls-32 {
        fill: url(#linear-gradient-14);
      }

      .cls-33 {
        fill: url(#linear-gradient-2);
      }

      .cls-34 {
        fill: url(#linear-gradient-7);
      }

      .cls-35 {
        fill: url(#linear-gradient-3);
      }

      .cls-57 {
        clip-path: url(#clippath);
      }

      .cls-36 {
        fill: url(#linear-gradient-9);
      }

      .cls-37 {
        fill: url(#linear-gradient-27);
      }

      .cls-58 {
        clip-path: url(#clippath-3);
      }

      .cls-38 {
        fill: url(#linear-gradient-36);
      }

      .cls-39 {
        fill: url(#linear-gradient-8);
      }

      .cls-59 {
        clip-path: url(#clippath-8);
      }

      .cls-40 {
        fill: url(#linear-gradient-24);
      }

      .cls-41 {
        fill: url(#linear-gradient-18);
      }

      .cls-42 {
        fill: url(#linear-gradient-30);
      }

      .cls-60 {
        clip-path: url(#clippath-5);
      }

      .cls-44 {
        fill: url(#linear-gradient-28);
      }

      .cls-45 {
        fill: url(#linear-gradient-10);
      }

      .cls-46 {
        fill: url(#linear-gradient-4);
      }

      .cls-47 {
        fill: url(#linear-gradient-37);
      }

      .cls-48 {
        fill: url(#linear-gradient-39);
        opacity: .2;
      }
    </style>
    <clipPath id="clippath">
      <path class="cls-18" d="M1631.97,2577.96l-283.85,155.08s-132.99-116.42-119.57-257.18c27.38-287.2-226.07-291.13-331.98-308.66-159.72-26.43-288.94-119.38-154.4-264.1,134.54-144.71-170.06-309.34-434.15-314.85-175.83-3.67-315.75-473.74,162.46-507.6,334.69-23.7,447.84,283.06,541.8,424.39,93.97,141.33,321.35,33.04,344.85,255.56,20.08,190.07-40.81,369.93,110.88,425.27,151.7,55.34,226.58,169.4,163.96,392.09Z"/>
    </clipPath>
    <linearGradient id="linear-gradient" x1="6436.1" y1="-1353.18" x2="5792.16" y2="476.97" gradientTransform="translate(6523.5 -698.27) rotate(151.35) scale(1 -1)" gradientUnits="userSpaceOnUse">
      <stop offset="0" stop-color="#aa80f9"/>
      <stop offset="1" stop-color="#6165d7"/>
    </linearGradient>
    <linearGradient id="linear-gradient-2" x1="-4815.11" y1="-254.94" x2="-4136.79" y2="1527.4" gradientTransform="translate(5572.91 324.39) rotate(-.65)" xlink:href="#linear-gradient"/>
    <clipPath id="clippath-1">
      <path class="cls-18" d="M1091.28,1702.48l237.93-46.55s71.43-160.54-12.14-207.5c-83.57-46.95-39.74-202.13-26.65-287.2,35.51-230.82-235.23-220.69-215.07-520.21,5.36-79.66,44.25-230.45-23.68-296.83-77.39-75.63-142.34-7.15-191.14-69.75-76.28-97.83-208.23-137.17-294.9-43.19-85.54,92.76-2.62,287.68,225.48,450.89,148.98,134.57,148.83,173.03,130.03,265.97-13.17,65.1-91.99,232.87-1.06,304.83s158.96,148.49,117.08,220.91c-63.72,110.2,54.11,228.62,54.11,228.62Z"/>
    </clipPath>
    <linearGradient id="linear-gradient-3" x1="697.96" y1="-695.85" x2="1611.14" y2="807.47" gradientTransform="translate(-212.09 1342.84) rotate(-6.68)" gradientUnits="userSpaceOnUse">
      <stop offset="0" stop-color="#e38ddd"/>
      <stop offset="1" stop-color="#9571f6"/>
    </linearGradient>
    <clipPath id="clippath-2">
      <path class="cls-18" d="M1067.66,1830.66l381.89-47.26c16.61-53.92,34.62-151.84-47.84-165.22-114.65-18.61-136.22-203.85-112.35-273.04,29.54-85.64,94.06-286.29-82.63-317.71-147.09-26.16-248.43-14.35-276.12-187.19-27.7-172.84-139.06-269.73-304.68-240.01-174.29,31.28-340.61-173.06-476.79-82.42-237.28,157.93,28.57,515.01,344.39,590.71,315.81,75.69,151.71,199.88,157.98,343.23,8.56,195.7,281.93,121.9,363.02,189.75,63.57,53.19,61.31,137.04,53.14,189.16Z"/>
    </clipPath>
    <clipPath id="clippath-3">
      <rect class="cls-18" x="1455.25" y="1409.45" width="1282.48" height="1231.05"/>
    </clipPath>
    <clipPath id="clippath-4">
      <path class="cls-18" d="M1576.01,3056.17l192.56,105.21s90.22-78.98,81.11-174.47c-18.57-194.84,153.37-197.5,225.22-209.39,108.35-17.93,196.02-80.99,104.74-179.16-91.27-98.17,115.36-209.85,294.53-213.59,175.32-3.66,269.98-317.43-110.21-344.35-227.05-16.08-303.81,192.03-367.56,287.9-63.75,95.87-218,22.41-233.95,173.37-13.62,128.94,27.69,250.96-75.22,288.5-102.91,37.54-153.71,114.92-111.23,265.99Z"/>
    </clipPath>
    <linearGradient id="linear-gradient-4" x1="6480.01" y1="-327.34" x2="6043.16" y2="914.22" gradientTransform="translate(-3314.02 -698.27) rotate(28.65)" xlink:href="#linear-gradient"/>
    <linearGradient id="linear-gradient-5" x1="-4546.15" y1="1015.55" x2="-4085.98" y2="2224.67" gradientTransform="translate(-2363.43 324.39) rotate(-179.35) scale(1 -1)" xlink:href="#linear-gradient"/>
    <clipPath id="clippath-5">
      <path class="cls-18" d="M1942.81,2462.24l-161.41-31.58s-48.46-108.91,8.23-140.76c56.69-31.85,26.96-137.12,18.08-194.83-24.09-156.58,159.58-149.71,145.9-352.91-3.64-54.04-30.02-156.34,16.06-201.37,52.5-51.3,96.56-4.85,129.67-47.32,51.75-66.37,141.26-93.06,200.06-29.3,58.03,62.93,1.78,195.16-152.96,305.88-101.07,91.29-100.96,117.39-88.21,180.43,8.93,44.16,62.4,157.98.72,206.79-61.69,48.82-107.84,100.73-79.43,149.87,43.23,74.76-36.71,155.09-36.71,155.09Z"/>
    </clipPath>
    <linearGradient id="linear-gradient-6" x1="962.22" y1="466.59" x2="1581.71" y2="1486.43" gradientTransform="translate(3421.57 1342.84) rotate(-173.32) scale(1 -1)" xlink:href="#linear-gradient-3"/>
    <clipPath id="clippath-6">
      <path class="cls-18" d="M1958.83,2549.2l-259.07-32.06c-11.27-36.58-23.49-103.01,32.46-112.08,77.77-12.62,92.41-138.29,76.22-185.23-20.04-58.1-63.81-194.21,56.06-215.53,99.79-17.75,168.53-9.73,187.32-126.99,18.79-117.25,94.34-182.99,206.69-162.82,118.24,21.22,231.07-117.4,323.45-55.91,160.97,107.14-19.38,349.38-233.63,400.73-214.25,51.35-102.92,135.6-107.17,232.84-5.81,132.76-191.26,82.7-246.27,128.73-43.13,36.08-41.59,92.97-36.05,128.33Z"/>
    </clipPath>
    <linearGradient id="linear-gradient-7" x1="1333.45" y1="2016.73" x2="-805.15" y2="4870.85" gradientUnits="userSpaceOnUse">
      <stop offset="0" stop-color="#ffc444"/>
      <stop offset="1" stop-color="#f36f56"/>
    </linearGradient>
    <linearGradient id="linear-gradient-8" x1="630.09" y1="2650.35" x2="2640.77" y2="2650.35" gradientUnits="userSpaceOnUse">
      <stop offset=".49" stop-color="#ebeff2"/>
      <stop offset="1" stop-color="#fff"/>
    </linearGradient>
    <clipPath id="clippath-7">
      <path class="cls-18" d="M2222.99,1627.9l-604.54,187.2s16.92-657.28,15.56-640.11c-1.35,17.16-844.25-547.18-1170.78-435.82-326.53,111.37-660.65,853.6-182.25,1203.91,478.4,350.31,597.9-21.83,511.57,665.44l1027.99-70.01,420.53-546.04-18.09-364.56Z"/>
    </clipPath>
    <linearGradient id="linear-gradient-9" x1="223.18" y1="526.56" x2="160.88" y2="774.12" gradientTransform="translate(2665.49 1746.13) rotate(-113.53) scale(1 -1)" gradientUnits="userSpaceOnUse">
      <stop offset="0" stop-color="#ab316d"/>
      <stop offset="1" stop-color="#792d3d"/>
    </linearGradient>
    <linearGradient id="linear-gradient-10" x1="-2970.69" y1="326.22" x2="-2352.91" y2="326.22" gradientTransform="translate(-168.06 -25.31) rotate(-139.25) scale(1 -1)" gradientUnits="userSpaceOnUse">
      <stop offset="0" stop-color="#ff9085"/>
      <stop offset="1" stop-color="#fb6fbb"/>
    </linearGradient>
    <linearGradient id="linear-gradient-11" y1="332.91" x2="-2351.81" y2="332.91" xlink:href="#linear-gradient-10"/>
    <linearGradient id="linear-gradient-12" x1="-2785.39" y1="2159.31" x2="-2099.64" y2="2159.31" gradientTransform="translate(-1252.62) rotate(-180) scale(1 -1)" xlink:href="#linear-gradient-10"/>
    <linearGradient id="linear-gradient-13" x1="-1502.73" y1="1349.23" x2="-188.52" y2="1349.23" gradientTransform="translate(-493.98 385.52) rotate(161.85) scale(1 -1)" gradientUnits="userSpaceOnUse">
      <stop offset="0" stop-color="#311944"/>
      <stop offset="1" stop-color="#6b3976"/>
    </linearGradient>
    <linearGradient id="linear-gradient-14" x1="-1435.08" y1="1486.99" x2="-120.82" y2="1486.99" gradientTransform="translate(-453.67 402.6) rotate(160.65) scale(1 -1)" xlink:href="#linear-gradient-13"/>
    <linearGradient id="linear-gradient-15" x1="-2507.23" y1="1964.21" x2="-2520.58" y2="1533.66" gradientTransform="translate(-1252.62) rotate(-180) scale(1 -1)" xlink:href="#linear-gradient-9"/>
    <linearGradient id="linear-gradient-16" x1="-2596.57" y1="1655.34" x2="-2474.75" y2="1256.51" gradientTransform="translate(-1252.62) rotate(-180) scale(1 -1)" xlink:href="#linear-gradient-9"/>
    <linearGradient id="linear-gradient-17" x1="-2785.39" y1="2307.41" x2="-2099.64" y2="2307.41" gradientTransform="translate(-1252.62) rotate(-180) scale(1 -1)" xlink:href="#linear-gradient-10"/>
    <clipPath id="clippath-8">
      <path class="cls-18" d="M2263.01,410.26v-179.91h-669.95v581.95h129.11c20.83,195.88,187.5,350.91,390.04,350.91,216.63,0,389.42-186.17,390.91-392.06,1.17-162.16-98.17-301.15-240.11-360.89Z"/>
    </clipPath>
    <linearGradient id="linear-gradient-18" x1="1947.28" y1="501.67" x2="1958.74" y2="403.73" xlink:href="#linear-gradient-7"/>
    <linearGradient id="linear-gradient-19" x1="1818.78" y1="802.11" x2="1861.25" y2="439.17" gradientTransform="matrix(1,0,0,1,0,0)" xlink:href="#linear-gradient"/>
    <linearGradient id="linear-gradient-20" x1="1491.01" y1="314.13" x2="1540.25" y2="403.84" gradientTransform="translate(2381.61 -1086.08) rotate(90)" gradientUnits="userSpaceOnUse">
      <stop offset="0" stop-color="#311944"/>
      <stop offset="1" stop-color="#893976"/>
    </linearGradient>
    <linearGradient id="linear-gradient-21" x1="1510.47" y1="405.13" x2="1575.15" y2="405.13" gradientTransform="translate(2383.12 -1086.86) rotate(90)" xlink:href="#linear-gradient-20"/>
    <linearGradient id="linear-gradient-22" x1="6378.09" y1="1449.54" x2="6421.76" y2="1359.16" gradientTransform="translate(-4022.35 -115.16) rotate(7.04)" xlink:href="#linear-gradient-7"/>
    <linearGradient id="linear-gradient-23" x1="6152.63" y1="652.91" x2="6258.38" y2="652.91" gradientTransform="translate(-4018.91 -214.99) rotate(15.37)" gradientUnits="userSpaceOnUse">
      <stop offset="0" stop-color="#444b8c"/>
      <stop offset="1" stop-color="#26264f"/>
    </linearGradient>
    <linearGradient id="linear-gradient-24" x1="6120.43" y1="1024.87" x2="6165.02" y2="932.57" gradientTransform="translate(-3992.89 -153.91) rotate(11.41)" xlink:href="#linear-gradient-7"/>
    <linearGradient id="linear-gradient-25" x1="-4297.18" y1="1873.48" x2="-4579.23" y2="1237.66" gradientTransform="translate(-2522.07) rotate(-180) scale(1 -1)" xlink:href="#linear-gradient-9"/>
    <linearGradient id="linear-gradient-26" x1="-4297.18" y1="1873.48" x2="-4579.23" y2="1237.66" gradientTransform="translate(-2522.07) rotate(-180) scale(1 -1)" xlink:href="#linear-gradient-9"/>
    <linearGradient id="linear-gradient-27" x1="-4776.82" y1="1304.86" x2="-5058.87" y2="669.05" gradientTransform="translate(-2657.7 53.78) rotate(-172.96) scale(1 -1)" xlink:href="#linear-gradient-9"/>
    <linearGradient id="linear-gradient-28" x1="-4841.04" y1="1159.33" x2="-4514.15" y2="806.63" gradientTransform="translate(-2522.07) rotate(-180) scale(1 -1)" xlink:href="#linear-gradient"/>
    <linearGradient id="linear-gradient-29" x1="-4819.37" y1="1179.41" x2="-4492.48" y2="826.71" gradientTransform="translate(-2522.07) rotate(-180) scale(1 -1)" xlink:href="#linear-gradient"/>
    <linearGradient id="linear-gradient-30" x1="-4200.79" y1="2597.16" x2="-4189.27" y2="2290.3" gradientTransform="translate(-2705.72 -56.85) rotate(156.5) scale(1 -1)" xlink:href="#linear-gradient-7"/>
    <linearGradient id="linear-gradient-31" x1="6066.26" y1="2160.48" x2="5980" y2="1941.39" gradientTransform="translate(-4112.34 -869.54) rotate(-6.66)" xlink:href="#linear-gradient-13"/>
    <linearGradient id="linear-gradient-32" x1="-5452.01" y1="1646.36" x2="-5455.98" y2="1965.94" gradientTransform="translate(-3464.6 -919.63) rotate(176.85) scale(1 -1)" xlink:href="#linear-gradient-7"/>
    <linearGradient id="linear-gradient-33" x1="6039.91" y1="2170.97" x2="5953.56" y2="1951.66" gradientTransform="translate(-4112.34 -869.54) rotate(-6.66)" xlink:href="#linear-gradient-13"/>
    <linearGradient id="linear-gradient-34" x1="-4790.86" y1="956.28" x2="-4743.54" y2="551.96" gradientTransform="translate(-2522.07) rotate(-180) scale(1 -1)" xlink:href="#linear-gradient"/>
    <linearGradient id="linear-gradient-35" x1="1902.9" y1="845.09" x2="2044.29" y2="845.09" xlink:href="#linear-gradient-7"/>
    <linearGradient id="linear-gradient-36" x1="2185.68" y1="565.74" x2="2190.5" y2="524.56" gradientTransform="translate(-278.26 725.97) rotate(-21.47)" xlink:href="#linear-gradient-7"/>
    <linearGradient id="linear-gradient-37" x1="610.92" y1="628.49" x2="1690.41" y2="628.49" gradientTransform="matrix(1,0,0,1,0,0)" xlink:href="#linear-gradient-20"/>
    <linearGradient id="linear-gradient-38" x1="630.37" y1="628.49" x2="1709.83" y2="628.49" gradientTransform="matrix(1,0,0,1,0,0)" xlink:href="#linear-gradient-10"/>
    <linearGradient id="linear-gradient-39" x1="630.37" y1="624.84" x2="1450.34" y2="624.84" gradientTransform="matrix(1,0,0,1,0,0)" xlink:href="#linear-gradient-10"/>
  </defs>
  <g class="cls-52">
    <g id="Illustration">
      <g id="Acknowledgment_received" data-name="Acknowledgment received">
        <path class="cls-13" d="M1283.7.24C922.52,6.62,363.7,143.95,202.85,496.86c-56.18,123.26-52.37,304.46-44.77,666.87,2.24,106.52,5.94,261.78,31.98,454.42,54.08,400.17,90.9,672.59,230.24,831.22,349.15,397.47,1610.35,385.98,2148.92-329.59,293.79-390.35,338.99-945.64,70.35-1404.56C2343.81,209.96,1767.24-8.3,1283.7.24Z"/>
        <g>
          <g class="cls-57">
            <path class="cls-6" d="M1631.97,2577.96l-283.85,155.08s-132.99-116.42-119.57-257.18c27.38-287.2-226.07-291.13-331.98-308.66-159.72-26.43-270.83-112.63-176.38-259.52,106.86-166.2-148.07-313.91-412.17-319.42-258.44-5.4-397.98-467.91,162.46-507.6,334.69-23.7,447.84,283.06,541.8,424.39,93.97,141.33,321.35,33.04,344.85,255.56,20.08,190.07-40.81,369.93,110.88,425.27,151.7,55.34,226.58,169.4,163.96,392.09Z"/>
            <g class="cls-50">
              <path class="cls-25" d="M1523.51,2671.43l-6.49,2.14c-1.32-4.02-135.47-405.64-388.5-763.69C895.42,1580.02,510.76,1220.73,2.07,1382.27l-2.07-6.51c226.45-71.91,447.55-48.39,657.18,69.93,167.45,94.51,327.94,249.4,477.01,460.35,253.59,358.88,388,761.35,389.33,765.38Z"/>
              <path class="cls-25" d="M742.64,1498.92l-6.35,2.51c-83.49-211.38-312.49-451.32-314.79-453.72l4.92-4.73c2.31,2.41,232.24,243.33,316.22,455.95Z"/>
              <path class="cls-25" d="M600.8,1423.92c-270.39-15.47-425.91,147.8-427.44,149.45l-4.99-4.65c1.56-1.68,159.13-167.28,432.83-151.62l-.39,6.82Z"/>
              <path class="cls-25" d="M1281.19,2152.97c-221.35-245.92-643.46-105.27-647.46-103.56l-3.09-6.08c3.76-2.05,432.31-143.03,655.63,105.07l-5.07,4.57Z"/>
              <path class="cls-25" d="M1217.64,2032.25l-6.54,1.98c-61.38-202.01,67.2-434.33,68.51-436.66l5.95,3.35c-1.29,2.3-128.45,232.14-67.92,431.33Z"/>
              <path class="cls-25" d="M1494.52,2610.83c-68.72-105.24-273.29-106.54-275.35-106.54v-6.83c8.55,0,210.32,1.29,281.06,109.63l-5.72,3.73Z"/>
              <path class="cls-25" d="M1464.04,2515.3l-6.46,2.22c-32.29-93.99,45.33-260.75,70.84-315.55,3.6-7.75,6.72-14.43,7.04-15.73l6.65,1.54c-.42,1.84-2.48,6.29-7.5,17.07-25.22,54.18-101.97,219.07-70.57,310.46Z"/>
            </g>
          </g>
          <g>
            <path class="cls-33" d="M1037.16,1473.86c-36.63,63.35-10.35,129.27,16.14,174,7.02.32,10.98,2.3,17.97,4.2,63.09,17.09,93.64,10.93,158.49,17.96,13.96,1.51,56.27-6.51,73.35-10.9l31.71-8.69s65.81-155.04-17.75-201.99c-83.57-46.95-39.74-202.13-26.65-287.2,8.04-52.24-5.02-78.7-5.15-98.37-1.36-208.21,64.43-266.42,22.4-333.85-46.4-74.44-139.86-24.81-194.62-103.12-61.83-88.43,15.83-211.09-61.38-281.7-13.24-12.11-27.17-24.18-49.75-32.1-55.73-19.55-103.44,11.03-141.39-37.64-76.28-97.84-208.23-137.17-294.9-43.19-85.54,92.76-2.62,287.68,225.48,450.89,148.98,134.56,148.83,173.03,130.03,265.97-13.17,65.1-91.99,232.87-1.06,304.83,90.93,71.96,158.96,148.49,117.08,220.91Z"/>
            <g class="cls-55">
              <g class="cls-50">
                <path class="cls-9" d="M1195.68,1671.08l4.79-.36c-1.73-26.48-3.83-53.16-6.24-79.29-17.85-193.51-54.56-378.12-109.09-548.69-46.21-144.53-105.84-281.03-177.22-405.71-57.41-100.26-122.7-193.46-194.07-277.01-50.17-58.73-102.8-112.12-156.42-158.68-9.34-8.12-19.4-15.92-29.12-23.47-12.96-10.06-26.36-20.46-38.17-31.67l-3.46,3.15c11.98,11.37,25.47,21.84,38.51,31.96,9.68,7.51,19.68,15.28,28.93,23.31,53.46,46.41,105.93,99.64,155.96,158.2,71.19,83.33,136.33,176.31,193.6,276.35,71.24,124.42,130.75,260.65,176.87,404.9,54.44,170.28,91.08,354.59,108.91,547.81,2.41,26.1,4.51,52.74,6.24,79.19Z"/>
                <path class="cls-9" d="M983.68,794.31l4.47-1.71c-75.55-176.63,23.02-493.28,24.03-496.46l-4.61-1.18c-1.01,3.19-100.04,321.31-23.89,499.35Z"/>
                <path class="cls-9" d="M1148,1306.46l4.64-1.22c-36.1-125.89-279.49-231.81-281.95-232.87l-2.09,4.05c2.43,1.05,243.86,106.11,279.39,230.04Z"/>
                <path class="cls-9" d="M1161.79,1379.66l4.79-.45c-7.45-85.04,31.41-205.61,109.44-339.49q3.92-6.73,3.86-7.58l-4.79.39,2.4-.2-2.27-.65c-.21.47-1.69,3.02-3.41,5.96-78.47,134.65-117.54,256.11-110.01,342.01Z"/>
                <path class="cls-9" d="M1191.78,1622.81l4.47-1.7c-36.79-87.04-180.15-126.61-181.59-127l-1.43,4.28c1.42.38,142.6,39.38,178.54,124.42Z"/>
                <path class="cls-9" d="M1202.9,1671.72c23.11-73.23,69.5-143.11,141.82-213.63l-3.45-3.04c-72.87,71.06-119.64,141.55-142.98,215.5l4.61,1.17Z"/>
                <path class="cls-9" d="M751.21,412.7l4.36-1.94c-47.95-95.92-74.15-207.45-82.76-244.1-2.08-8.87-2.83-11.99-3.29-13.03l-4.44,1.77c.34.8,1.53,5.87,3.04,12.29,8.64,36.77,34.92,148.65,83.09,245.01Z"/>
                <path class="cls-9" d="M854.25,557.49l3.58-3.04c-71.77-73.14-286.73-79.61-295.85-79.85l-.23,4.46c2.21.06,222.07,6.66,292.5,78.43Z"/>
              </g>
            </g>
          </g>
          <g>
            <path class="cls-35" d="M1199.11,2155.9c16.14-3.98-12.97-86.26,22.13-200,8.77-28.41,45.85-186.71,166.7-205.08,23.46-3.57,46.92-7.14,70.38-10.7,14.13-55.26,17.21-109.97-56.61-121.95-114.64-18.6-136.22-203.84-112.35-273.04,29.54-85.64,94.06-286.29-82.63-317.71-147.09-26.16-248.43-14.35-276.13-187.18-27.7-172.84-139.06-269.74-304.68-240.02-174.29,31.28-340.61-173.05-476.79-82.42-237.28,157.93,28.58,515.01,344.39,590.71,315.81,75.69,151.71,199.88,157.98,343.23,1.34,13.27,4.43,33.75,12.67,57.22,50.74,144.52,208.63,152.13,333.53,260.8,170.33,148.2,174.22,392.84,201.41,386.14Z"/>
            <g class="cls-51">
              <g class="cls-50">
                <path class="cls-9" d="M1241.21,1751.55l7.95-2.52C1070.41,1201.6,610.35,746.19,48.52,560.52l-2.92,7.47c559.47,184.89,1017.6,638.4,1195.61,1183.55Z"/>
                <path class="cls-9" d="M1116.6,1461.68l8.28-.99c-23.74-225.19,161.39-425.06,163.27-427.05l-6.14-5.17c-1.9,2.02-189.52,204.48-165.4,433.21Z"/>
                <path class="cls-9" d="M1205.41,1651.76l6.89-4.59c-135.69-187.24-576.88-163.3-581.32-163.03l.3,7.89c4.39-.26,441.01-23.94,574.12,159.74Z"/>
                <path class="cls-9" d="M771.13,1009.04l7.27-4.02c-93.65-157.05-6.05-426.41-5.16-429.11l-7.93-2.19c-.91,2.74-89.57,275.38,5.82,435.33Z"/>
                <path class="cls-9" d="M479.16,776.16l3.63-7.2c-197.11-85.86-478.47,8.22-481.29,9.19l2.63,7.43c2.79-.96,280.99-93.94,475.03-9.42Z"/>
              </g>
            </g>
          </g>
        </g>
        <g class="cls-58">
          <g>
            <g class="cls-56">
              <path class="cls-46" d="M1576.01,3056.17l192.56,105.21s90.22-78.98,81.11-174.47c-18.57-194.84,153.37-197.5,225.22-209.39,108.35-17.93,183.73-76.41,119.66-176.06-72.5-112.75,100.45-212.95,279.61-216.69,175.32-3.66,269.98-317.43-110.21-344.35-227.05-16.08-303.81,192.03-367.56,287.9-63.75,95.87-218,22.41-233.95,173.37-13.62,128.94,27.69,250.96-75.22,288.5-102.91,37.54-153.71,114.92-111.23,265.99Z"/>
              <g class="cls-50">
                <path class="cls-25" d="M1649.59,3119.57l4.4,1.45c.9-2.72,91.9-275.18,263.56-518.08,158.14-223.77,419.09-467.52,764.18-357.92l1.4-4.41c-153.62-48.79-303.61-32.82-445.82,47.44-113.6,64.12-222.47,169.19-323.6,312.3-172.03,243.46-263.21,516.5-264.12,519.23Z"/>
                <path class="cls-25" d="M2179.32,2324.15l4.31,1.7c56.64-143.4,211.99-306.17,213.55-307.8l-3.34-3.21c-1.57,1.64-157.55,165.07-214.52,309.31Z"/>
                <path class="cls-25" d="M2275.54,2273.27c183.43-10.5,288.93,100.27,289.97,101.39l3.39-3.16c-1.06-1.14-107.95-113.48-293.63-102.86l.26,4.63Z"/>
                <path class="cls-25" d="M1813.97,2767.85c150.17-166.83,436.52-71.41,439.23-70.25l2.1-4.12c-2.55-1.39-293.27-97.03-444.77,71.28l3.44,3.1Z"/>
                <path class="cls-25" d="M1857.09,2685.95l4.43,1.35c41.64-137.04-45.59-294.65-46.47-296.23l-4.04,2.27c.88,1.56,87.14,157.48,46.08,292.61Z"/>
                <path class="cls-25" d="M1669.25,3078.46c46.62-71.4,185.4-72.27,186.79-72.28v-4.63c-5.8,0-142.68.87-190.67,74.38l3.88,2.53Z"/>
                <path class="cls-25" d="M1689.93,3013.65l4.38,1.5c21.91-63.76-30.75-176.89-48.06-214.07-2.45-5.25-4.56-9.79-4.77-10.67l-4.51,1.04c.29,1.25,1.68,4.27,5.09,11.58,17.11,36.76,69.18,148.62,47.88,210.61Z"/>
              </g>
            </g>
            <g>
              <path class="cls-17" d="M1979.52,2307.15c24.85,42.98,7.02,87.7-10.95,118.04-4.76.22-7.45,1.56-12.19,2.85-42.8,11.59-63.53,7.42-107.52,12.18-9.47,1.03-38.18-4.42-49.76-7.39l-21.51-5.89s-44.65-105.18,12.04-137.03c56.69-31.85,26.96-137.12,18.08-194.83-5.45-35.44,3.41-53.39,3.49-66.74.92-141.25-43.71-180.73-15.19-226.48,31.48-50.5,94.88-16.83,132.03-69.96,41.94-59.99-10.74-143.2,41.64-191.1,8.98-8.21,18.43-16.41,33.75-21.78,37.81-13.26,70.18,7.48,95.92-25.54,51.75-66.37,141.26-93.06,200.06-29.3,58.03,62.93,1.78,195.16-152.97,305.88-101.07,91.29-100.96,117.39-88.21,180.43,8.93,44.16,62.4,157.98.72,206.79-61.69,48.82-107.84,100.74-79.43,149.87Z"/>
              <g class="cls-60">
                <g class="cls-50">
                  <path class="cls-9" d="M1871.98,2440.94l-3.25-.24c1.18-17.96,2.6-36.06,4.24-53.79,12.11-131.28,37.01-256.51,74.01-372.23,31.35-98.05,71.8-190.65,120.23-275.23,38.95-68.02,83.24-131.24,131.65-187.92,34.04-39.84,69.74-76.06,106.12-107.64,6.34-5.51,13.16-10.8,19.76-15.92,8.79-6.82,17.88-13.88,25.89-21.49l2.35,2.14c-8.13,7.71-17.28,14.82-26.12,21.68-6.56,5.1-13.35,10.36-19.63,15.81-36.27,31.49-71.86,67.6-105.8,107.32-48.29,56.53-92.48,119.61-131.34,187.47-48.33,84.41-88.7,176.82-119.99,274.68-36.93,115.52-61.79,240.55-73.88,371.63-1.63,17.71-3.06,35.78-4.23,53.72Z"/>
                  <path class="cls-9" d="M2015.8,1846.15l-3.03-1.16c51.25-119.82-15.62-334.64-16.3-336.79l3.12-.8c.68,2.17,67.87,217.98,16.21,338.76Z"/>
                  <path class="cls-9" d="M1904.33,2193.59l-3.15-.83c24.49-85.4,189.6-157.26,191.27-157.97l1.42,2.75c-1.65.71-165.43,71.99-189.54,156.06Z"/>
                  <path class="cls-9" d="M1894.97,2243.24l-3.25-.31c5.06-57.69-21.31-139.48-74.24-230.31q-2.66-4.57-2.62-5.14l3.25.27-1.63-.13,1.54-.44c.14.32,1.14,2.05,2.31,4.05,53.23,91.34,79.74,173.74,74.63,232.01Z"/>
                  <path class="cls-9" d="M1874.63,2408.19l-3.04-1.15c24.96-59.05,122.21-85.89,123.19-86.16l.97,2.91c-.97.26-96.74,26.71-121.12,84.4Z"/>
                  <path class="cls-9" d="M1867.08,2441.37c-15.68-49.68-47.15-97.08-96.21-144.92l2.34-2.06c49.43,48.21,81.16,96.03,96.99,146.19l-3.12.8Z"/>
                  <path class="cls-9" d="M2173.51,1587.26l-2.96-1.32c32.53-65.07,50.3-140.73,56.14-165.6,1.41-6.02,1.92-8.14,2.23-8.84l3.01,1.2c-.23.54-1.04,3.98-2.06,8.34-5.86,24.94-23.69,100.84-56.37,166.21Z"/>
                  <path class="cls-9" d="M2103.61,1685.49l-2.43-2.06c48.69-49.62,194.52-54.01,200.7-54.17l.16,3.02c-1.5.04-150.65,4.52-198.43,53.21Z"/>
                </g>
              </g>
            </g>
            <g>
              <path class="cls-12" d="M1869.66,2769.84c-10.95-2.7,8.8-58.52-15.02-135.68-5.95-19.28-31.1-126.66-113.09-139.13-15.91-2.42-31.83-4.84-47.74-7.26-9.59-37.49-11.68-74.6,38.4-82.73,77.77-12.62,92.41-138.29,76.22-185.23-20.04-58.1-63.81-194.21,56.06-215.53,99.79-17.75,168.53-9.73,187.32-126.98,18.79-117.25,94.34-182.99,206.69-162.83,118.24,21.22,231.07-117.4,323.45-55.91,160.97,107.14-19.39,349.38-233.63,400.73-214.24,51.35-102.92,135.6-107.17,232.84-.91,9-3.01,22.9-8.6,38.82-34.42,98.04-141.53,103.2-226.26,176.92-115.55,100.54-118.19,266.5-136.64,261.96Z"/>
              <g class="cls-53">
                <g class="cls-50">
                  <path class="cls-9" d="M1841.09,2495.53l-5.4-1.71c121.26-371.37,433.36-680.32,814.51-806.27l1.98,5.07c-379.54,125.42-690.33,433.08-811.09,802.91Z"/>
                  <path class="cls-9" d="M1925.63,2298.89l-5.62-.67c16.11-152.77-109.49-288.36-110.76-289.71l4.17-3.51c1.29,1.37,128.57,138.72,112.21,293.89Z"/>
                  <path class="cls-9" d="M1865.38,2427.84l-4.68-3.12c92.05-127.02,391.35-110.78,394.36-110.6l-.21,5.35c-2.98-.18-299.18-16.24-389.48,108.37Z"/>
                  <path class="cls-9" d="M2159.99,1991.82l-4.93-2.73c63.53-106.54,4.11-289.28,3.5-291.11l5.38-1.49c.62,1.86,60.76,186.82-3.95,295.33Z"/>
                  <path class="cls-9" d="M2358.06,1833.84l-2.47-4.88c133.72-58.25,324.59,5.58,326.5,6.23l-1.78,5.04c-1.89-.65-190.62-63.73-322.26-6.39Z"/>
                </g>
              </g>
            </g>
          </g>
        </g>
        <g>
          <g>
            <path class="cls-21" d="M2640.77,2635.53l-2010.69-17.38v51.42c0,13.96,8.77,25.83,20.65,27.94l568.56,101.26c6.75,1.2,13.59,1.52,20.4.95l1379.23-115.46c12.31-1.03,21.85-12.94,21.85-27.28v-21.47Z"/>
            <g>
              <path class="cls-21" d="M1900.84,2553.12l-1277.95,94.08c-22.87,1.68-41.46-16.2-41.46-39.96v-951.66c0-23.75,18.59-43.01,41.46-43.01h1277.95c18.84,0,34.07,17.41,34.07,38.88v860.28c0,21.47-15.23,40-34.07,41.39Z"/>
              <path class="cls-43" d="M1921.21,2553.12l-1277.95,94.08c-22.87,1.68-41.46-16.2-41.46-39.96v-951.66c0-23.75,18.59-43.01,41.46-43.01h1277.95c18.84,0,34.07,17.41,34.07,38.88v860.28c0,21.47-15.23,40-34.07,41.39Z"/>
              <path class="cls-34" d="M1881.4,2492.46l-1190.28,81.72c-18.61,1.28-33.73-13.4-33.73-32.8v-833.18c0-19.39,15.12-35.18,33.73-35.26l1190.28-5.13c15.54-.07,28.11,14.2,28.11,31.86v758.87c0,17.66-12.57,32.84-28.11,33.91Z"/>
              <path class="cls-43" d="M1327.37,1638.6c0,8.84-6.58,16.03-14.7,16.06-8.13.03-14.73-7.14-14.73-16s6.6-16.05,14.73-16.06c8.12,0,14.7,7.16,14.7,16Z"/>
              <path class="cls-10" d="M643.26,2647.19l1271.49-93.6,6.47-.48c8.64-.64,16.5-4.91,22.51-11.39-91.5-5.01-148.33-37.48-184.99-71.03-73.62-67.38-60.85-133.82-140.24-178.12-99.02-55.25-176.88,14.76-252.03-54.32-45.55-41.88-23.19-73.11-79.25-135.7-62.09-69.32-102.51-46.02-164.9-108.41-78.89-78.88-39.44-140.26-107.39-196.9-82.44-68.71-171.35-5.11-249.83-71.01-33.85-28.42-52.42-69.74-62.12-113.68h-59.71c-22.87,0-41.46,19.26-41.46,43.01v951.66c0,23.75,18.59,41.64,41.46,39.96Z"/>
            </g>
            <path class="cls-39" d="M1981.43,2547.9l-1351.34,99.02,589.21,104.94c6.75,1.2,13.59,1.52,20.4.95l1401.08-117.29-637.85-86.96c-7.13-.97-14.33-1.2-21.5-.67Z"/>
            <polygon class="cls-8" points="827.27 2647.77 1952.3 2564.1 2300.48 2611.19 1185.15 2700.63 827.27 2647.77"/>
          </g>
          <g class="cls-54">
            <g>
              <path class="cls-36" d="M1984.98,1818.83s18.9-22.6,54.35-23.67c35.45-1.07,83.76-22.11,104.51-23.96,5.01-.45,7.49-1.88,7.91-3.71.88-3.76-22.16-9.25-42.59-9.93-36.23-1.21-57.35,12.69-62.24,5.55-5.46-7.99,17.92-29.79,13.64-34.67-3.32-3.78-19.22,8.37-36.23,15.78-12.08,5.26-59.32,61.75-59.32,61.75l19.97,12.86Z"/>
              <path class="cls-45" d="M1986.14,1777.81c8.79,17.74,17.58,35.48,26.37,53.22-8.69,47.77-26.41,118.3-66.04,195.6-42.64,83.19-139.85,272.82-311,290.02-130.53,13.12-240.03-80.33-281.48-116.09-38.34-33.07-72.73-62.25-89.42-108.77-26.34-73.39.25-163.88,64.05-249.09,31.4-41.95,96.75-32.92,115.32,16.09,29.29,77.31,78.68,131.01,135.42,141.5,63.8,11.8,134.85-31.42,165.09-49.78,44.97-27.3,56.43-48.29,112.37-91.54,51.71-39.98,98.56-65.84,129.33-81.17Z"/>
              <g class="cls-49">
                <path class="cls-16" d="M1466.55,2175.59c48.88-11.01,67.33-56.4,134.34-60.47,84.73-5.14,121.14,63.43,175.34,45.35,44.24-14.76,51.59-70.99,82.43-143.38,23.92-56.15,65.41-130.01,142.76-208.44,3.7,7.46,7.39,14.92,11.09,22.38-8.69,47.77-26.41,118.3-66.04,195.6-42.64,83.19-139.85,272.82-311,290.02-130.53,13.12-240.03-80.33-281.48-116.09-38.34-33.07-72.73-62.25-89.42-108.77-4.62-12.88-7.6-26.28-9.05-40.09,101.07,115.39,167.15,133.76,211.03,123.88Z"/>
              </g>
              <path class="cls-2" d="M847.24,2500.66c-1.03-50.56-3.74-329.53,131.32-530.13,30.96-45.98,85.73-127.34,190.9-181.17,40.99-20.98,77.97-31.81,103.35-37.69,29.99,4.46,59.98,8.92,89.98,13.38,28.71,26.16,67.7,67.18,102.14,125.24,21.8,36.76,57.88,97.59,66.24,176.12,9.74,91.52-26.64,127.59-56.51,270.12-16.2,77.3-21.32,142.12-23.1,184.82-103.76,8.92-207.51,17.83-311.27,26.75-1.64-49.18-5.95-103.88-14.59-162.93-8.94-61.11-21-116.47-34.05-165.36-13.95,55.56-26.23,120.46-32.83,193.33-4.57,50.43-5.75,97.3-4.86,139.83-12.61,4.97-83.58,31.57-151.99-4.86-26.72-14.23-44.22-33.37-54.72-47.42Z"/>
              <path class="cls-22" d="M1346.15,1580.71c48.25-75.23,72.37-112.84,73.39-151.13,2.24-83.68-61.63-156.68-120.76-191.45-82.97-48.79-175.68-33.49-234.35-23.8-75.39,12.44-74.4,30.82-112.57,27.37-105.48-9.54-117.14-150.33-235.89-222.41-131.02-79.53-299.64-19.09-341.67-2.14-223.93,90.34-276.47,327.07-281.44,351.41-46.06,225.53,80.67,437.88,234.33,533.71,43.94,27.4,156.35,97.5,246.68,57.27,86.99-38.74,79.64-146.9,199.45-204.3,16.74-8.02,67.46-32.32,132.94-28.97,73.95,3.79,96.93,39.27,174.96,40.72,63.27,1.18,110.65-20.99,120.08-25.55,59.32-28.7,88.64-73.12,144.83-160.74Z"/>
              <g class="cls-49">
                <path class="cls-32" d="M80.28,1438.38c50.95,219.52,101.14,287.43,144.98,289.43,61.34,2.8,95.58-124.07,189.4-125.48,84.38-1.27,108.96,100.58,185.88,97.82,97.23-3.49,105.75-167.93,213.66-195.7,128.44-33.06,218.67,173.56,370.64,162.25,46.03-3.43,102.65-27.27,165.15-103.52-1.88,3.07-3.78,6.18-5.74,9.39-54.34,88.78-82.72,133.8-141.42,163.75-9.33,4.76-56.24,27.92-119.52,28.07-78.04.19-101.76-34.8-175.77-37.04-65.54-1.98-115.74,23.39-132.31,31.75-118.57,59.9-108.96,167.89-195.11,208.45-89.47,42.12-203.32-25.6-247.83-52.07-143.75-85.5-266.61-270.86-252.01-477.1Z"/>
              </g>
              <path class="cls-14" d="M1347.93,1616.31s2.52,64.98,0,108.6c-1.85,31.93,25.77,50.12,25.77,50.12,0,0,15.16,25.98-66.84,30.32-82,4.34-161.79,0-161.79,0,0,0,80.17-53.32,98.48-67.49,18.31-14.17,28.14-120.11,16.41-187.21l87.96,65.66Z"/>
              <path class="cls-26" d="M1368.92,1406.64s41.73,100.62,41.51,161.42c-.22,60.8-42.73,95.69-74.98,80.67-32.24-15.02-80.82-78.24-80.82-78.24,0,0-6.53,17.02-31.26,0-24.73-17.02-43.1-112.61,5-85.49,0,0-7.61-26.79,4.24-65.66,11.86-38.86,122.24-80.81,136.31-12.7Z"/>
              <g class="cls-49">
                <path class="cls-3" d="M1022.33,2371.52c36.17-56.76-18.98-105.97,4.45-195.8,19.99-76.66,85.1-136.5,109.03-126.83,33.06,13.37-31.9,151.59,33.38,215.83,43.33,42.64,99.82,9.14,157.98,46.73,38.35,24.78,76.89,80.18,79.9,213.71-88.93,7.64-177.85,15.28-266.78,22.93-1.64-49.18-5.95-103.88-14.59-162.93-8.94-61.11-21-116.47-34.05-165.36-13.95,55.56-26.23,120.46-32.83,193.33-4.57,50.43-5.75,97.3-4.86,139.83-12.61,4.97-83.58,31.57-151.99-4.86-3.82-2.03-7.43-4.18-10.88-6.38,1.75-29.46,9.3-63.11,31.12-92.3,35.46-47.44,73.96-36.81,100.13-77.88Z"/>
              </g>
              <path class="cls-43" d="M1300.07,1621.06c-58.41,0-80.41-83.7-80.64-84.61-.55-2.18.76-4.39,2.94-4.94,2.17-.55,4.39.76,4.94,2.94.23.91,23.91,90.88,85.68,76.99,2.19-.48,4.37.89,4.86,3.08.49,2.19-.89,4.36-3.08,4.86-5.14,1.15-10.04,1.69-14.71,1.69Z"/>
              <ellipse class="cls-43" cx="1331.32" cy="1612.94" rx="21.01" ry="11.52" transform="translate(-363.06 386.94) rotate(-14.58)"/>
              <ellipse class="cls-43" cx="1216.14" cy="1522.74" rx="19.62" ry="31.42" transform="translate(-344.07 355.06) rotate(-14.58)"/>
              <path class="cls-43" d="M1206.23,1506.09s-.49-1.18-1.41-3.39c-.87-2.19-2.08-5.42-3.48-9.56-2.74-8.29-6.27-20.29-8.65-35.09-2.43-14.75-3.59-32.42-1.06-51.12,1.25-9.33,3.56-18.89,7.16-28.14,3.57-9.26,8.42-18.21,14.36-26.36,5.87-8.23,13.18-15.29,20.78-21.57,1.95-1.52,3.89-3.02,5.83-4.53,2.04-1.35,4.07-2.68,6.08-4.02l3.02-1.98,3.13-1.75c2.08-1.15,4.15-2.29,6.2-3.43,2.21-1.18,4.18-2,6.27-2.99,2.2-.83,4.37-1.79,6.54-2.48,4.33-1.42,8.64-2.61,12.92-3.33,8.53-1.56,16.82-1.8,24.32-1.11,1.81.1,3.67.38,5.49.68,1.82.27,3.6.54,5.26,1.01,1.68.44,3.34.75,4.9,1.26,1.56.54,3.07,1.06,4.53,1.57,1.49.44,2.8,1.22,4.13,1.79,1.3.65,2.61,1.15,3.76,1.85,2.26,1.46,4.46,2.62,6.22,4,1.74,1.41,3.29,2.66,4.63,3.76,1.26,1.19,2.23,2.31,3.07,3.16,1.64,1.74,2.52,2.67,2.52,2.67.82.87.78,2.24-.09,3.06-.86.81-2.21.78-3.04-.07l-.2-.21s-.82-.85-2.36-2.43c-.78-.78-1.68-1.81-2.85-2.89-1.25-.99-2.7-2.14-4.31-3.42-1.63-1.26-3.68-2.3-5.77-3.63-1.06-.64-2.29-1.09-3.5-1.67-1.24-.51-2.44-1.24-3.84-1.63-1.37-.46-2.78-.93-4.23-1.41-1.46-.47-3.03-.74-4.6-1.13-1.58-.42-3.21-.65-4.87-.88-1.65-.26-3.36-.51-5.23-.6-7.16-.58-14.95-.27-23,1.29-4.03.72-8.09,1.89-12.16,3.27-2.04.67-3.97,1.56-5.99,2.33-1.98.96-4.22,1.94-6.05,2.96-1.97,1.11-3.95,2.24-5.94,3.37l-3,1.71-2.88,1.94c-1.92,1.3-3.86,2.6-5.8,3.91-1.83,1.46-3.68,2.92-5.52,4.39-7.2,6.08-14.07,12.85-19.54,20.69-5.54,7.77-10.03,16.26-13.32,25.06-3.32,8.79-5.43,17.88-6.52,26.8-2.23,17.85-.96,34.85,1.54,49.08,2.44,14.27,5.98,25.88,8.71,33.85,1.39,3.98,2.59,7.06,3.44,9.14.87,2.03,1.33,3.11,1.33,3.11l.06.15c.82,1.93-.07,4.16-2,4.98-1.93.82-4.16-.07-4.98-2v-.04Z"/>
            </g>
          </g>
        </g>
        <g>
          <g>
            <g>
              <path class="cls-15" d="M2629.97,893.49l-65.93-19.41c8.36-44.87,10.27-89.76,6.33-133.62l65.29-15.81c17.84-4.32,28.95-22.69,24.85-41.08l-10.94-49.04c-4.13-18.5-22.01-30.14-39.98-25.96l-64.27,14.93c-14.98-43.47-35.96-84.88-62.33-122.97l47.75-44.99c13.7-12.91,14.4-35.03,1.54-49.47l-34.38-38.61c-13-14.6-34.81-15.98-48.71-3.03l-47.66,44.41c-35.13-31.06-75.12-57.8-119.39-78.91l18.9-63.81c5.58-18.82-5.18-39.38-24.08-45.93l-50.59-17.53c-19.14-6.63-39.28,3.4-44.92,22.43l-19.11,64.51c-49.07-10.2-98.42-13.11-146.74-9.31l-16.96-68.46c-4.98-20.12-25.36-33.38-45.56-29.58l-54.02,10.16c-20.43,3.84-32.86,23.44-27.71,43.73l17.79,70.17c-46.95,15.94-91.39,38.52-131.82,67.07l-53.4-55.3c-15.14-15.68-40.06-17.26-55.65-3.46l-41.59,36.82c-15.69,13.89-15.92,37.88-.54,53.51l55.5,56.4c-30.97,36.94-56.86,78.7-76.35,124.61l-79.67-23.45c-21.44-6.31-43.69,4.77-49.61,24.77l-15.76,53.19c-5.93,20,6.77,41.16,28.28,47.24l82.05,23.2c-6.85,48.45-6.3,96.66.92,143.41l-84.28,19.57c-21.49,4.99-34.39,25.33-28.75,45.37l14.94,53.13c5.6,19.91,27.46,31.83,48.77,26.67l85.52-20.7c18.94,43.13,43.88,83.48,74.04,119.84l-63.22,58.91c-15.41,14.36-15.64,37.48-.52,51.58l39.97,37.28c14.94,13.94,39.35,13.6,54.53-.7l62.96-59.32c36.9,26.74,77.77,48.88,121.96,65.44l-23.67,79.91c-5.64,19.03,5.85,38.19,25.6,42.78l52.19,12.13c19.5,4.53,39.78-7.07,45.36-25.89l23.42-79.04c46.03,5.49,91.57,4.73,135.64-1.61l19.42,76.59c4.64,18.3,23.77,28.73,42.69,23.34l50.04-14.25c18.71-5.33,30.21-24.34,25.71-42.5l-18.61-75.16c41.53-16.66,80.6-38.58,116.17-65.1l52.41,53.26c12.86,13.07,34.28,12.77,47.86-.62l35.98-35.5c13.49-13.31,14.16-34.69,1.49-47.82l-50.45-52.25c27.82-33.65,51.46-71.24,69.9-112.22l67.92,19.21c17.51,4.95,35.97-5.61,41.29-23.57l14.15-47.77c5.32-17.96-4.47-36.68-21.92-41.81ZM1979.99,1128.67c-197.13-50.53-315.47-250.2-257.96-444.35,57.52-194.15,266.14-299.22,459.72-236.71,187,60.38,290.2,255.68,236.18,438.04-54.02,182.36-247.51,291.83-437.94,243.01Z"/>
              <polygon class="cls-15" points="2018.14 198.81 1971.68 183.28 1943.03 220.57 2018.14 198.81"/>
              <polygon class="cls-15" points="2477.77 356.1 2531.73 372.67 2519.9 412.59 2477.77 356.1"/>
              <polygon class="cls-15" points="2626.97 609.77 2680.27 627.93 2657.83 654.14 2626.97 609.77"/>
              <polygon class="cls-15" points="2634.47 895.44 2687.67 915.9 2662.04 937.06 2634.47 895.44"/>
              <polygon class="cls-15" points="2433.08 1242.44 2483.71 1265.65 2502.97 1224.41 2433.08 1242.44"/>
              <polygon class="cls-15" points="2173.09 1377.25 2218.01 1399.95 2232.17 1366 2173.09 1377.25"/>
              <polygon class="cls-15" points="1910.79 1391.09 1870.41 1370.91 1923.24 1327.29 1910.79 1391.09"/>
              <polygon class="cls-15" points="1693.49 1276.84 1646.89 1251.88 1698.94 1216.84 1693.49 1276.84"/>
              <polygon class="cls-15" points="1677.96 305.17 1729.27 322.13 1697.58 353.82 1677.96 305.17"/>
              <polygon class="cls-15" points="1454.58 680.86 1499.98 701.94 1507.71 661.98 1454.58 680.86"/>
              <polygon class="cls-15" points="1472.32 995.37 1516.47 1016.66 1529.36 987.03 1472.32 995.37"/>
            </g>
            <path class="cls-8" d="M2681.94,913.54l-66.48-19.57c8.42-45.24,10.35-90.49,6.37-134.71l65.83-15.93c17.99-4.35,29.19-22.88,25.05-41.41l-11.03-49.44c-4.16-18.65-22.19-30.39-40.31-26.18l-64.81,15.05c-15.1-43.83-36.26-85.58-62.85-123.97l48.15-45.35c13.81-13.01,14.51-35.32,1.55-49.88l-34.66-38.93c-13.1-14.72-35.1-16.11-49.11-3.06l-48.05,44.77c-35.42-31.31-75.74-58.27-120.38-79.56l19.06-64.33c5.62-18.98-5.22-39.7-24.28-46.3l-51.01-17.68c-19.3-6.69-39.61,3.42-45.29,22.61l-19.27,65.03c-49.47-10.28-99.23-13.22-147.96-9.39l-17.1-69.02c-5.02-20.28-25.57-33.66-45.93-29.83l-54.47,10.24c-20.6,3.87-33.13,23.63-27.94,44.09l17.94,70.75c-47.34,16.07-92.14,38.83-132.91,67.61l-53.85-55.76c-15.27-15.81-40.39-17.4-56.11-3.49l-41.93,37.12c-15.82,14-16.05,38.19-.55,53.95l55.96,56.87c-31.22,37.24-57.33,79.34-76.97,125.62l-80.33-23.65c-21.62-6.36-44.05,4.8-50.02,24.97l-15.89,53.62c-5.97,20.16,6.82,41.5,28.51,47.63l82.73,23.39c-6.9,48.84-6.35,97.45.93,144.58l-84.98,19.73c-21.67,5.03-34.67,25.53-28.99,45.74l15.07,53.56c5.65,20.07,27.69,32.09,49.18,26.89l86.22-20.87c19.1,43.48,44.24,84.16,74.66,120.83l-63.74,59.39c-15.54,14.48-15.77,37.79-.53,52l40.3,37.59c15.07,14.05,39.68,13.71,54.98-.71l63.48-59.8c37.2,26.96,78.42,49.28,122.98,65.97l-23.87,80.56c-5.68,19.19,5.9,38.5,25.82,43.13l52.62,12.23c19.66,4.57,40.11-7.12,45.73-26.1l23.61-79.68c46.41,5.54,92.33,4.77,136.76-1.62l19.58,77.22c4.68,18.45,23.97,28.97,43.04,23.54l50.45-14.37c18.87-5.37,30.45-24.54,25.92-42.84l-18.77-75.77c41.87-16.79,81.26-38.89,117.13-65.62l52.84,53.69c12.97,13.18,34.57,12.88,48.25-.62l36.28-35.79c13.6-13.42,14.28-34.98,1.5-48.21l-50.87-52.68c28.05-33.92,51.88-71.82,70.48-113.14l68.48,19.36c17.65,4.99,36.27-5.65,41.63-23.76l14.27-48.16c5.36-18.11-4.51-36.97-22.11-42.16ZM2026.59,1150.62c-198.76-50.95-318.09-252.25-260.11-447.98,57.98-195.73,268.33-301.65,463.52-238.63,188.55,60.88,292.62,257.78,238.15,441.63-54.46,183.85-249.55,294.2-441.56,244.98Z"/>
          </g>
          <g class="cls-59">
            <g>
              <path class="cls-41" d="M1913.33,469.56l20.52-13.99s2.72-26.5,14.12-35.6c11.39-9.1,42.25-18.88,45.72-4.02,3.47,14.86-12.54,62.03-32.1,67.23-19.56,5.2-39.62,17.58-39.62,17.58l-8.63-31.2Z"/>
              <path class="cls-4" d="M2002.2,521.32s-60.28-14.29-107.28,31.75c-47,46.03-102.27,119.7-107.2,109.11-4.93-10.59,88.68-129.46,147.62-164.13-7.43-22.29-23.53-46.31-23.53-46.31,0,0-272.67,77.02-265.48,203.81,7.19,126.79,79.35,145.24,98.9,145.24s68.27,24.15,204.97-40.24,52-239.22,52-239.22Z"/>
              <g>
                <rect class="cls-31" x="1925.72" y="422.57" width="101.63" height="64.67" rx="4.42" ry="4.42" transform="translate(463.66 1805.77) rotate(-54.72)"/>
                <g>
                  <rect class="cls-11" x="1927.23" y="423.63" width="101.63" height="64.67" rx="4.42" ry="4.42" transform="translate(463.43 1807.46) rotate(-54.72)"/>
                  <rect class="cls-43" x="1936.08" y="428.42" width="85" height="53.59" rx="4.42" ry="4.42" transform="translate(464.27 1807.58) rotate(-54.72)"/>
                  <rect class="cls-43" x="2002.66" y="409.58" width="3.7" height="14.78" rx="1.5" ry="1.5" transform="translate(506.45 1812.58) rotate(-54.72)"/>
                </g>
              </g>
              <path class="cls-27" d="M2141.52,2046.56l-4,45.52c1.14,2.2,14.67,8.79,25.41,3.14l10.27-44.75-31.69-3.91Z"/>
              <path class="cls-23" d="M1838.64,2046.79c6.52,7.2,8.01,20.47,2.34,27.01-5.58,6.43-13.96,1.61-37.74,2.32-25.47.76-32.12,6.78-49.43,2-6.99-1.93-19.34-6.62-19.11-11.62.16-3.51,6.45-5.32,27.45-12.36,29.81-9.99,29.68-10.53,36.01-11.58,15.9-2.63,31.87-5.28,40.48,4.23Z"/>
              <path class="cls-40" d="M1822.32,2005.25l-12.78,42.5c.97,2.28,13.95,9.88,25.1,5.07l18.97-41.25-31.3-6.32Z"/>
              <path class="cls-24" d="M1935.83,1074.5c-1.83,142.82-11.58,303.41-34.96,477.87-23.11,172.43-55.5,328.23-90.83,465.24,16.3,4.39,32.6,8.77,48.9,13.16,41.35-38.56,93.52-99.26,118.69-185.04,15.62-53.24,10.42-80.6,20.33-146.08,15.78-104.26,47.74-158.89,80.77-242.97,29.69-75.55,64.77-186.43,83.59-334.65-75.5-15.84-150.99-31.69-226.49-47.53Z"/>
              <path class="cls-29" d="M1923.69,1760.31c16.36-45.19,36.27-59.11,45.16-106.46,7.75-41.3-2.89-54.71-3.23-96.78-.66-83.82,40.97-111.59,54.84-180.65,7.52-37.44-41.65-131.97-86.76-213.64,1.05-30.11,1.76-59.57,2.13-88.28,75.49,15.84,150.99,31.69,226.49,47.53-18.81,148.21-53.9,259.1-83.59,334.65-33.03,84.08-64.99,138.7-80.77,242.97-9.91,65.48-4.7,92.84-20.33,146.08-25.17,85.78-77.34,146.48-118.69,185.04-1.54-.41-3.08-.83-4.62-1.24,41.69-54.33,54.63-100.48,56.47-136.96,1.9-37.71-7.53-75.8,12.9-132.26Z"/>
              <path class="cls-37" d="M2092.8,1091.29c9.98,181.64,18.18,366.67,24.4,554.97,4.67,141.3,8.09,280.81,10.37,418.49,16.65,2.06,33.3,4.11,49.95,6.17,16.09-29.95,37.46-75.75,52.1-134.45,17.78-71.29,13.66-113.62,21.46-187.51,8.75-82.87,21.46-100.92,43.97-205.46,45.69-212.15,68.53-318.23,17.57-384.22-16.54-21.42-68.41-75.16-219.81-67.99Z"/>
              <path class="cls-44" d="M2323.38,549.7c-43.07-12.11-106.19-26.28-183.49-30.64-113.98-6.44-170.99-9.29-204.44,16.91-103.77,81.26-5.43,371.71-42.4,524.33-31.11,128.41-32.26,130.65-32.26,130.65-7.35,14.36-19.27,34.3-14.52,58.07,3.74,18.69,17.88,40.17,37.1,46.78,39.93,13.74,62.82-50.11,129.04-69.36,69.22-20.12,146.66,19.85,244.58,70.4,62.32,32.17,83.6,52.69,105.43,42.51,42.05-19.61,30.5-127.09,25.81-170.97-18.65-174.39-39.64-378.57-64.84-618.66Z"/>
              <path class="cls-7" d="M1915.63,1234.49c11.26-19.52,10.79-49,35.49-62.91,14.4-8.11,25.63-4.32,45.16-4.84,58.24-1.55,69.39-38.19,109.68-40.32,62.4-3.3,92.37,81.59,127.42,69.36,22.88-7.98,37.62-53.75,25.81-88.71-16.46-48.74-72.88-42.06-146.78-108.07-31.61-28.24-76.97-79.19-64.52-101.62,13.08-23.55,75.16,11.01,120.97-24.19,26.73-20.54,23.32-45.92,45.16-91.94,11.83-24.93,55.17-89.77,119.63-133.47,20.72,198.19,38.52,370.46,54.57,520.58,4.69,43.89,16.24,151.37-25.81,170.97-21.84,10.18-43.12-10.34-105.43-42.51-97.92-50.55-175.36-90.52-244.58-70.4-66.22,19.25-89.11,83.1-129.04,69.36-12.47-4.29-22.75-14.87-29.49-26.86,35.61-6.4,53.26-19.73,61.75-34.43Z"/>
              <g>
                <path class="cls-42" d="M2111.16,432.31c-.07,8.67-7.92,52.08,21.14,73.12,29.33,21.24,66.22,20.08,77.21,22.81,25.49,6.32,28.77,6.15,29.33,8.68,2.75,12.34-66.76,54.39-138.56,44.26-43.95-6.2-83.93-31.27-81.47-44.44,2.47-13.25,29.86-6.14,42.94-30.11,9.1-16.68,15.4-40.35,3.35-59.95,11.68-21.88,34.38,7.53,46.06-14.35Z"/>
                <g>
                  <path class="cls-19" d="M2018.16,430.5c-12.39-12.9-16.03-37.6-5.61-54.74,8.97-14.75,25.41-18.68,35.25-21.04,28.52-6.82,66.46.86,82.36,25.94,9.42,14.87-2.9,49.6-4.74,55.8-2.08,7.01-7.04,9.92-11.27,15.54-5.86,7.79-15.02,20.17-29.92,40.81-1.99-5.32-4.83-11.86-8.93-18.83-1.58-2.68-7.88-13.14-16.51-21.4-17.28-16.56-28.87-9.85-40.62-22.08Z"/>
                  <path class="cls-30" d="M2106.78,474.25s-15.25,33.48-53.4,35.57c-34.16,1.88-48.27-73.53-28.57-92.26,6.57-6.25,20.77-10.23,32.92-8.35,7.18,1.11,9.88,3.71,21.65,5.3,10.86,1.46,13.69-.06,17.19,2.23,4.38,2.87,8.28,10.72,4.31,33.73,5.68-7.32,13.14-10.77,18.95-8.84.93.31,3.44,1.61,5.04,3.85,5.78,8.11-.81,20.15-18.09,28.76Z"/>
                  <path class="cls-5" d="M2097.56,412.01c-1.49,1.42,4.24,6.91,5.65,15.5,2.74,16.66-11.79,38.82-28.88,42.6-10.11,2.24-13.66-3.59-30.78-3.34-10.6.16-19.15,2.54-24.49,4.39-3.1,19.01,4.11,36.73,17.41,43.75,14.32,7.56,30.54-.03,37.33-3.2,4.54-2.12,19.08-8.89,25.32-23.72,6.5-15.46-2.64-23.2,5.64-34.12,4.18-5.51,10.18-8.4,15.13-18.69,1.34-2.8,2.17-5.22,2.66-6.85-9.86-8.21-22.83-18.37-24.98-16.32Z"/>
                </g>
              </g>
              <path class="cls-20" d="M2234.99,598.98c17.4-26.4,52.03-52.3,83.87-50,93,6.71,207.64,257.24,129.04,356.47-60,75.75-245.36,79.42-414.53-51.62v-43.55c83.25,14.56,152.26,24.23,203.23,30.65,31.79,4,63.46,7.61,69.36-4.84,8.92-18.84-54.76-45.79-79.04-116.13-3.35-9.7-24.63-71.38,8.06-120.97Z"/>
              <path class="cls-28" d="M1973.16,819.54c-.76.13-42.72-26.93-36.77-10.96,5.94,15.97,18.1,21.54,18.1,21.54,0,0-22.13,7.43-36.99,25.75-14.86,18.33-19.07,29.22-9.41,30.71,9.66,1.49,89.44-35.7,109.97-35.06,20.53.64,24.99-.35,24.99-.35l1.24-29.22s-52.13-5.57-71.14-2.41Z"/>
              <path class="cls-38" d="M1937.91,451.49s7.26-.2,10.89,3.96c3.63,4.16,21.38-8.06,28.18-21.72,6.8-13.65-1.58-27.98-7.64-25s-36.88,14.31-32.45,41.31l1.02,1.45Z"/>
            </g>
          </g>
        </g>
        <g>
          <g>
            <path class="cls-47" d="M1684.06,980.25c-.7.19-1.44.27-2.25.27l-272.23-4.16-112.21-1.75-92.23-1.4-507.44-11.27c-48.47-.74-87.41-40.19-86.75-88.04l7.35-516.32c.66-45.32,37.2-80.46,82.52-81.12,1.98-.08,3.96.36,5.99.48l6.18.71h.08l698.51,47.76c43.22,2.22,78.01,39.91,77.89,84.45l-.89,409.53,198.07,144.73c6.34,4.63,4.2,14.41-2.56,16.12Z"/>
            <path class="cls-1" d="M1706.05,964.06l-198.06-144.76.9-409.64c.1-44.53-34.7-82.42-77.91-84.67l-704.76-48.43c-48.1-2.5-87.82,33.74-88.49,81.01l-7.35,516.34c-.68,47.86,38.26,87.29,86.74,88.04l599.65,12.69,112.21,1.72,272.25,4.18c8.46.13,11.82-11.36,4.82-16.48Z"/>
            <path class="cls-43" d="M1076.19,825.37c-18.84.96-36.37-5.89-46.12-18.12l-163.79-205.52c-15.35-19.26-7.08-45.64,18.46-58.92,25.52-13.27,58.65-8.42,73.98,10.83l113.59,142.66,149.88-238.53c13.45-21.41,45.77-31.23,72.16-21.94,26.39,9.28,36.89,34.14,23.46,55.54l-193.69,308.49c-8.87,14.12-26.5,23.85-46.04,25.38-.63.05-1.26.09-1.89.12Z"/>
          </g>
          <path class="cls-48" d="M1450.34,973.21l-733.21-11.27c-48.47-.74-87.41-40.19-86.75-88.04l7.35-516.32c.66-45.32,37.2-80.46,82.52-81.12.89.58,1.75,1.21,2.6,1.87,41.71,30.55,77.54,78.94,87.38,155.63,27.21,211.83,134.1,204.06,242.93,217.66,54.69,6.84,104.48,19.08,154.03,50.53,49.05,31.13,97.91,81.08,151.08,163.25,33.97,52.47,62.23,85.94,91.65,107.51.16.12.31.23.43.31Z"/>
        </g>
      </g>
    </g>
  </g>
</svg>